<svg version="1.1" xmlns="http://www.w3.org/2000/svg" viewBox="0 0 905.9999999999982 579.2857142857142" width="905.9999999999982" height="579.2857142857142">
  <!-- svg-source:excalidraw -->
  
  <defs>
    <style class="style-fonts">
      @font-face {
        font-family: "Virgil";
        src: url("https://excalidraw.com/Virgil.woff2");
      }
      @font-face {
        font-family: "Cascadia";
        src: url("https://excalidraw.com/Cascadia.woff2");
      }
    </style>
    
  </defs>
  <rect x="0" y="0" width="905.9999999999982" height="579.2857142857142" fill="#ffffff"></rect><g stroke-linecap="round" transform="translate(10 251.07142857142833) rotate(0 33 32)"><path d="M20.44 3.43 C26.13 0.94, 35.09 -0.25, 41.37 1.09 C47.64 2.42, 53.98 6.67, 58.07 11.44 C62.15 16.22, 65.48 23.66, 65.87 29.74 C66.26 35.82, 63.87 42.8, 60.43 47.94 C56.98 53.08, 50.92 57.96, 45.21 60.6 C39.5 63.23, 32.41 65.18, 26.18 63.76 C19.94 62.34, 12.25 56.85, 7.82 52.07 C3.38 47.29, -0.06 41.26, -0.43 35.07 C-0.8 28.89, 1.52 20.64, 5.6 14.94 C9.67 9.24, 20.48 3.18, 24.01 0.85 C27.54 -1.47, 26.76 0.53, 26.78 1.02 M29.06 -1.14 C35.34 -2.01, 42.94 1.93, 48.72 4.91 C54.49 7.89, 61.08 11.44, 63.71 16.75 C66.33 22.06, 65.72 30.46, 64.49 36.76 C63.26 43.06, 60.84 50.05, 56.32 54.54 C51.8 59.04, 43.66 62.97, 37.37 63.74 C31.07 64.51, 24.01 62.11, 18.56 59.14 C13.1 56.18, 7.65 51.18, 4.65 45.96 C1.65 40.74, -0.5 33.85, 0.54 27.82 C1.59 21.79, 6.33 14.59, 10.92 9.77 C15.51 4.94, 25.39 0.33, 28.08 -1.15 C30.77 -2.62, 26.95 0.03, 27.05 0.9" stroke="#1e1e1e" stroke-width="1" fill="none"></path></g><g transform="translate(39.37146224379285 265.44401157345885) rotate(0 3.7940139770507812 17.5)"><text x="3.7940139770507812" y="0" font-family="Virgil, Segoe UI Emoji" font-size="28px" fill="#1e1e1e" text-anchor="middle" style="white-space: pre;" direction="ltr" dominant-baseline="text-before-edge">1</text></g><g stroke-linecap="round"><g transform="translate(56 433.9285714285712) rotate(0 1.0247221302197431 -64.54377987532473)"><path d="M0.36 -0.05 C0.64 -21.35, 0.42 -106.25, 0.65 -127.49 M-0.9 -1.12 C-0.16 -22.76, 2.61 -107.68, 2.95 -129.04" stroke="#1e1e1e" stroke-width="1" fill="none"></path></g></g><mask></mask><g stroke-linecap="round"><g transform="translate(76 282.4999999999998) rotate(0 84.04003496562382 1.8849039515560548)"><path d="M0.44 1.1 C28.14 1.75, 138.73 2.77, 166.49 3.14 M-0.78 0.63 C27.28 0.96, 141.04 1.07, 168.86 1.17" stroke="#1e1e1e" stroke-width="1" fill="none"></path></g></g><mask></mask><g stroke-linecap="round"><g transform="translate(261.71428571428623 298.21428571428544) rotate(0 1.4702124072509832 68.0124651382784)"><path d="M-0.86 -0.33 C-0.26 22.57, 3.36 114.62, 3.8 137.58 M0.89 -1.56 C1.4 20.97, 2.81 112.28, 3.34 135.69" stroke="#1e1e1e" stroke-width="1" fill="none"></path></g></g><mask></mask><g stroke-linecap="round"><g transform="translate(74.57142857142935 451.0714285714283) rotate(0 84.56914271603 1.0080454548208877)"><path d="M0.55 0.89 C28.56 1, 139.74 0.61, 167.57 0.6 M-0.62 0.31 C27.8 0.55, 141.34 1.45, 169.76 1.7" stroke="#1e1e1e" stroke-width="1" fill="none"></path></g></g><mask></mask><g stroke-linecap="round"><g transform="translate(68.85714285714312 438.2142857142855) rotate(0 91.49451407923243 -70.99350957085775)"><path d="M-0.69 1.19 C30.03 -22.5, 152.96 -117.53, 183.68 -141.18 M1.14 0.77 C31.83 -23.39, 152.81 -119.27, 183.17 -143.18" stroke="#1e1e1e" stroke-width="1" fill="none"></path></g></g><mask></mask><g stroke-linecap="round"><g transform="translate(70.28571428571558 295.35714285714266) rotate(0 89.14153118681679 73.31294402815132)"><path d="M-0.37 1.1 C29.27 25.25, 148.68 120.85, 178.65 144.89 M1.64 0.62 C31.05 24.92, 148.15 121.68, 177.74 146" stroke="#1e1e1e" stroke-width="1" fill="none"></path></g></g><mask></mask><g stroke-linecap="round" transform="translate(237.28571428571377 239.07142857142844) rotate(0 33 32)"><path d="M23.32 1.91 C28.94 -0.25, 37.47 -0.12, 43.47 1.86 C49.47 3.85, 55.6 8.69, 59.31 13.81 C63.02 18.94, 65.56 26.25, 65.72 32.6 C65.87 38.94, 64.17 46.77, 60.23 51.88 C56.29 56.98, 48.38 61.5, 42.09 63.24 C35.8 64.98, 28.45 64.39, 22.48 62.29 C16.51 60.19, 9.99 55.82, 6.26 50.66 C2.54 45.5, 0.11 37.56, 0.14 31.33 C0.16 25.1, 2.38 18.21, 6.43 13.28 C10.47 8.35, 21.15 3.75, 24.39 1.77 C27.64 -0.21, 25.75 1.02, 25.89 1.39 M48.78 4.59 C54.39 6.82, 60 10.7, 62.84 16.33 C65.68 21.96, 66.8 32.12, 65.83 38.38 C64.85 44.64, 61.4 49.47, 57.01 53.88 C52.62 58.28, 45.77 63.74, 39.47 64.83 C33.18 65.92, 25.05 63.63, 19.26 60.42 C13.46 57.2, 7.74 51.1, 4.71 45.54 C1.69 39.99, 0.13 33.16, 1.09 27.1 C2.05 21.03, 5.85 13.53, 10.46 9.15 C15.07 4.77, 22.3 1.52, 28.75 0.82 C35.2 0.13, 46.01 4.26, 49.15 4.99 C52.28 5.72, 47.75 5.04, 47.56 5.21" stroke="#1e1e1e" stroke-width="1" fill="none"></path></g><g transform="translate(260.4831500402488 253.44401157345897) rotate(0 9.968040466308594 17.5)"><text x="9.968040466308594" y="0" font-family="Virgil, Segoe UI Emoji" font-size="28px" fill="#1e1e1e" text-anchor="middle" style="white-space: pre;" direction="ltr" dominant-baseline="text-before-edge">2</text></g><g stroke-linecap="round" transform="translate(238.71428571428623 426.21428571428544) rotate(0 33 32)"><path d="M23.99 0.92 C29.48 -1.44, 36.64 -1.17, 42.79 1.07 C48.94 3.3, 56.99 9.16, 60.9 14.33 C64.82 19.5, 66.42 26.04, 66.29 32.07 C66.16 38.09, 64.03 45.36, 60.11 50.45 C56.19 55.54, 48.94 60.74, 42.77 62.6 C36.61 64.47, 29.39 63.79, 23.13 61.63 C16.87 59.47, 9.17 54.57, 5.21 49.65 C1.25 44.73, -0.94 38.15, -0.61 32.11 C-0.29 26.06, 2.59 18.5, 7.16 13.37 C11.73 8.24, 22.66 3.56, 26.82 1.33 C30.98 -0.91, 31.84 -0.36, 32.11 -0.04 M18.87 3.96 C24.08 0.98, 30.86 -1.2, 37.23 -0.25 C43.6 0.71, 52.52 5.15, 57.1 9.68 C61.68 14.22, 63.61 20.75, 64.7 26.95 C65.79 33.15, 66.37 41.25, 63.64 46.88 C60.91 52.51, 54.26 57.99, 48.31 60.71 C42.36 63.44, 34.57 64.18, 27.92 63.22 C21.28 62.25, 13.24 59.07, 8.43 54.94 C3.63 50.8, 0.03 44.71, -0.89 38.4 C-1.82 32.08, -0.36 22.88, 2.89 17.04 C6.13 11.21, 16.14 5.38, 18.56 3.38 C20.98 1.39, 17.14 4.62, 17.4 5.09" stroke="#1e1e1e" stroke-width="1" fill="none"></path></g><g transform="translate(262.91972470368455 440.5868687163159) rotate(0 8.960037231445312 17.5)"><text x="8.960037231445312" y="0" font-family="Virgil, Segoe UI Emoji" font-size="28px" fill="#1e1e1e" text-anchor="middle" style="white-space: pre;" direction="ltr" dominant-baseline="text-before-edge">4</text></g><g stroke-linecap="round" transform="translate(14.428571428572468 429.07142857142844) rotate(0 33 32)"><path d="M43.74 1.8 C49.46 3.63, 55.7 9.43, 59.38 14.58 C63.05 19.73, 65.78 26.71, 65.76 32.68 C65.75 38.65, 63.26 45.41, 59.29 50.4 C55.33 55.39, 48.09 60.71, 41.99 62.63 C35.88 64.54, 28.72 64.11, 22.66 61.91 C16.6 59.71, 9.42 54.54, 5.63 49.45 C1.84 44.35, -0.15 37.55, -0.09 31.35 C-0.02 25.16, 2.13 17.35, 6.01 12.29 C9.89 7.23, 16.24 2.6, 23.19 1 C30.14 -0.6, 42.86 1.9, 47.71 2.66 C52.56 3.43, 52.38 4.89, 52.29 5.58 M47.51 3.83 C53.01 5.82, 58.51 10.89, 61.4 16.5 C64.3 22.11, 65.79 31.31, 64.9 37.49 C64.02 43.68, 60.53 49.11, 56.1 53.61 C51.67 58.12, 44.45 63.45, 38.31 64.53 C32.18 65.61, 24.9 63.19, 19.3 60.08 C13.7 56.97, 7.66 51.45, 4.7 45.9 C1.74 40.34, 0.79 32.6, 1.54 26.75 C2.28 20.89, 4.72 15.34, 9.15 10.79 C13.58 6.24, 21.55 0.74, 28.12 -0.54 C34.69 -1.82, 45.39 2.3, 48.59 3.12 C51.79 3.93, 47.9 3.92, 47.32 4.33" stroke="#1e1e1e" stroke-width="1" fill="none"></path></g><g transform="translate(38.06000529101766 443.4440115734589) rotate(0 9.534042358398438 17.5)"><text x="9.534042358398438" y="0" font-family="Virgil, Segoe UI Emoji" font-size="28px" fill="#1e1e1e" text-anchor="middle" style="white-space: pre;" direction="ltr" dominant-baseline="text-before-edge">3</text></g><g transform="translate(153.47572435651637 258.9285714285712) rotate(0 6.809989929199219 12.5)"><text x="6.809989929199219" y="0" font-family="Virgil, Segoe UI Emoji" font-size="20px" fill="#e03131" text-anchor="middle" style="white-space: pre;" direction="ltr" dominant-baseline="text-before-edge">3</text></g><g transform="translate(270.30857631138497 352.8571428571428) rotate(0 7.1199951171875 12.5)"><text x="7.1199951171875" y="0" font-family="Virgil, Segoe UI Emoji" font-size="20px" fill="#e03131" text-anchor="middle" style="white-space: pre;" direction="ltr" dominant-baseline="text-before-edge">2</text></g><g transform="translate(144.37001037597838 454.2857142857141) rotate(0 11.629989624023438 12.5)"><text x="11.629989624023438" y="0" font-family="Virgil, Segoe UI Emoji" font-size="20px" fill="#e03131" text-anchor="middle" style="white-space: pre;" direction="ltr" dominant-baseline="text-before-edge">1.5</text></g><g transform="translate(23.757159641812905 350) rotate(0 15.099983215332031 12.5)"><text x="15.099983215332031" y="0" font-family="Virgil, Segoe UI Emoji" font-size="20px" fill="#e03131" text-anchor="middle" style="white-space: pre;" direction="ltr" dominant-baseline="text-before-edge">5.5</text></g><g transform="translate(116.96286446707745 398.5714285714283) rotate(0 6.17999267578125 12.5)"><text x="6.17999267578125" y="0" font-family="Virgil, Segoe UI Emoji" font-size="20px" fill="#e03131" text-anchor="middle" style="white-space: pre;" direction="ltr" dominant-baseline="text-before-edge">5</text></g><g transform="translate(115.98430524553805 311.428571428571) rotate(0 15.72998046875 12.5)"><text x="15.72998046875" y="0" font-family="Virgil, Segoe UI Emoji" font-size="20px" fill="#e03131" text-anchor="middle" style="white-space: pre;" direction="ltr" dominant-baseline="text-before-edge">3.5</text></g><g stroke-linecap="round" transform="translate(131.5714285714257 86.21428571428567) rotate(0 33 32)"><path d="M30.73 0.22 C36.62 -0.62, 43.85 2.39, 49.33 5.49 C54.8 8.59, 60.78 13.36, 63.57 18.83 C66.37 24.31, 67.6 32.05, 66.11 38.36 C64.61 44.67, 59.72 52.42, 54.58 56.7 C49.44 60.98, 41.72 63.53, 35.27 64.04 C28.83 64.55, 21.41 63.15, 15.9 59.77 C10.4 56.39, 4.63 49.57, 2.24 43.75 C-0.15 37.93, -0.07 30.99, 1.56 24.87 C3.19 18.74, 6.53 11.28, 12 6.99 C17.48 2.7, 30.08 0.26, 34.4 -0.87 C38.72 -2, 38.08 -0.52, 37.93 0.2 M42.06 0.25 C47.93 1.79, 55.25 8.51, 59.36 13.89 C63.47 19.27, 66.56 26.51, 66.74 32.52 C66.92 38.52, 64.25 44.94, 60.44 49.92 C56.63 54.9, 49.95 60.21, 43.86 62.41 C37.76 64.61, 29.98 64.9, 23.89 63.11 C17.8 61.32, 11.13 56.88, 7.32 51.69 C3.52 46.49, 1.37 38.03, 1.06 31.93 C0.74 25.84, 1.86 19.98, 5.44 15.12 C9.01 10.27, 16.13 5.15, 22.48 2.8 C28.83 0.45, 39.96 1.08, 43.53 1.02 C47.11 0.96, 44.2 1.62, 43.93 2.43" stroke="#1e1e1e" stroke-width="1" fill="none"></path></g><g transform="translate(156.0848662180506 100.58686871631619) rotate(0 8.65203857421875 17.5)"><text x="8.65203857421875" y="0" font-family="Virgil, Segoe UI Emoji" font-size="28px" fill="#1e1e1e" text-anchor="middle" style="white-space: pre;" direction="ltr" dominant-baseline="text-before-edge">5</text></g><g stroke-linecap="round"><g transform="translate(57.42857142857065 252.4999999999999) rotate(0 41.56274492111879 -53.96705554346147)"><path d="M0.04 -0.75 C13.59 -18.77, 68.29 -89.61, 82.18 -107.72 M-1.41 1.47 C12.47 -16.92, 70.49 -91.06, 84.53 -109.4" stroke="#1e1e1e" stroke-width="1" fill="none"></path></g></g><mask></mask><g stroke-linecap="round"><g transform="translate(257.42857142857065 242.4999999999999) rotate(0 -33.94830000506863 -51.54525894584526)"><path d="M0.75 -0.04 C-10.47 -16.73, -56.36 -84.13, -67.51 -101.1 M-0.31 -1.1 C-11.71 -18.08, -57.64 -86.44, -68.65 -103.05" stroke="#1e1e1e" stroke-width="1" fill="none"></path></g></g><mask></mask><g transform="translate(223.05715506417255 168.57142857142844) rotate(0 15.79998779296875 12.5)"><text x="15.79998779296875" y="0" font-family="Virgil, Segoe UI Emoji" font-size="20px" fill="#e03131" text-anchor="middle" style="white-space: pre;" direction="ltr" dominant-baseline="text-before-edge">0.5</text></g><g transform="translate(53.08001708984557 177.1428571428571) rotate(0 22.91998291015625 12.5)"><text x="22.91998291015625" y="0" font-family="Virgil, Segoe UI Emoji" font-size="20px" fill="#e03131" text-anchor="middle" style="white-space: pre;" direction="ltr" dominant-baseline="text-before-edge">0.25</text></g><g stroke-linecap="round" transform="translate(411.7142857142844 75.35714285714278) rotate(0 37.14285714285779 213.5714285714286)"><path d="M18.57 0 M18.57 0 C32.06 1.52, 47.45 -0.92, 55.71 0 M18.57 0 C27.45 -0.83, 35.97 0.13, 55.71 0 M55.71 0 C68.95 -1.53, 75.78 7.88, 74.29 18.57 M55.71 0 C67.72 0.67, 74.17 7.12, 74.29 18.57 M74.29 18.57 C76.57 166.97, 76.43 317.3, 74.29 408.57 M74.29 18.57 C74.19 158.05, 73.89 296.68, 74.29 408.57 M74.29 408.57 C72.31 419.33, 67.59 428.53, 55.71 427.14 M74.29 408.57 C74.29 421.06, 68.24 429, 55.71 427.14 M55.71 427.14 C43.11 425.72, 30.18 429.29, 18.57 427.14 M55.71 427.14 C44.35 426.56, 34.3 427.21, 18.57 427.14 M18.57 427.14 C7.97 427.74, -1.97 422.28, 0 408.57 M18.57 427.14 C7.06 429.09, 0.47 422.62, 0 408.57 M0 408.57 C1.34 304.47, 2.04 201.86, 0 18.57 M0 408.57 C0.57 261.98, 1.55 115.5, 0 18.57 M0 18.57 C-0.64 5.14, 5.59 -0.42, 18.57 0 M0 18.57 C1.39 7.03, 7.3 -0.01, 18.57 0" stroke="#1e1e1e" stroke-width="1" fill="none"></path></g><g stroke-linecap="round"><g transform="translate(411.7142857142844 155.3571428571429) rotate(0 36.772663065738016 0.5032955585795094)"><path d="M-0.38 -0.63 C11.75 -0.75, 61.36 -0.43, 73.93 -0.25 M1.62 1.66 C13.46 1.67, 60.62 1.71, 72.79 1.16" stroke="#1e1e1e" stroke-width="1" fill="none"></path></g></g><mask></mask><g stroke-linecap="round"><g transform="translate(413.51305121997757 236.28241872713454) rotate(0 37.85373794250518 -0.3929578919518235)"><path d="M1.19 -0.38 C13.36 -0.12, 60.85 0.86, 73.21 0.84 M0.35 -1.63 C12.87 -1.64, 62.89 -1.2, 75.35 -0.84" stroke="#1e1e1e" stroke-width="1" fill="none"></path></g></g><mask></mask><g stroke-linecap="round"><g transform="translate(410.6559083628308 334.8538472985632) rotate(0 38.12105553858328 -0.8752399421297241)"><path d="M1.19 -0.39 C13.43 -0.75, 61.35 -1.19, 73.55 -1.08 M0.36 -1.63 C12.97 -1.38, 63.66 -0.67, 75.88 -0.12" stroke="#1e1e1e" stroke-width="1" fill="none"></path></g></g><mask></mask><g stroke-linecap="round"><g transform="translate(410.65590836283445 419.1395615842775) rotate(0 36.46333831575157 0.1658243659883567)"><path d="M-0.04 0.85 C12.56 0.82, 61.92 -0.28, 74.45 -0.52 M-1.53 0.25 C11.04 0.42, 60.87 0.71, 73.59 0.74" stroke="#1e1e1e" stroke-width="1" fill="none"></path></g></g><mask></mask><g transform="translate(446.491700308663 103.21428571428567) rotate(0 3.7940139770507812 17.5)"><text x="3.7940139770507812" y="0" font-family="Virgil, Segoe UI Emoji" font-size="28px" fill="#1e1e1e" text-anchor="middle" style="white-space: pre;" direction="ltr" dominant-baseline="text-before-edge">1</text></g><g transform="translate(436.03195953368777 176.42857142857144) rotate(0 9.968040466308594 17.5)"><text x="9.968040466308594" y="0" font-family="Virgil, Segoe UI Emoji" font-size="28px" fill="#1e1e1e" text-anchor="middle" style="white-space: pre;" direction="ltr" dominant-baseline="text-before-edge">2</text></g><g transform="translate(439.3231004987447 275) rotate(0 9.534042358398438 17.5)"><text x="9.534042358398438" y="0" font-family="Virgil, Segoe UI Emoji" font-size="28px" fill="#1e1e1e" text-anchor="middle" style="white-space: pre;" direction="ltr" dominant-baseline="text-before-edge">3</text></g><g transform="translate(441.32567705426663 363.57142857142844) rotate(0 8.960037231445312 17.5)"><text x="8.960037231445312" y="0" font-family="Virgil, Segoe UI Emoji" font-size="28px" fill="#1e1e1e" text-anchor="middle" style="white-space: pre;" direction="ltr" dominant-baseline="text-before-edge">4</text></g><g transform="translate(441.63367571149683 442.1428571428571) rotate(0 8.65203857421875 17.5)"><text x="8.65203857421875" y="0" font-family="Virgil, Segoe UI Emoji" font-size="28px" fill="#1e1e1e" text-anchor="middle" style="white-space: pre;" direction="ltr" dominant-baseline="text-before-edge">5</text></g><g stroke-linecap="round"><g transform="translate(478.8571428571413 118.21428571428567) rotate(0 33.552308450775854 -0.9334931666135731)"><path d="M0.03 0.7 C11.44 0.49, 57.14 -0.31, 68.52 -0.86 M-1.41 0.02 C9.83 -0.56, 56.07 -2.26, 67.54 -2.57" stroke="#1e1e1e" stroke-width="1" fill="none"></path></g><g transform="translate(478.8571428571413 118.21428571428567) rotate(0 33.552308450775854 -0.9334931666135731)"><path d="M40.87 8.52 C49.46 4.79, 54.99 2.81, 67.04 -3.7 M39.89 8.2 C51.36 3.3, 61.99 0.7, 66.58 -1.92" stroke="#1e1e1e" stroke-width="1" fill="none"></path></g><g transform="translate(478.8571428571413 118.21428571428567) rotate(0 33.552308450775854 -0.9334931666135731)"><path d="M40.2 -11.99 C49.06 -9.48, 54.79 -5.22, 67.04 -3.7 M39.22 -12.31 C51.09 -9.02, 61.99 -3.42, 66.58 -1.92" stroke="#1e1e1e" stroke-width="1" fill="none"></path></g></g><mask></mask><g stroke-linecap="round" transform="translate(551.7142857142826 79.64285714285722) rotate(0 172.1428571428578 33.571428571428555)"><path d="M16.79 0 M16.79 0 C114.6 1.36, 214.53 0.96, 327.5 0 M16.79 0 C121.02 2.35, 225.84 1.15, 327.5 0 M327.5 0 C336.78 1.62, 345.39 6.65, 344.29 16.79 M327.5 0 C337.64 1.1, 343.7 5.7, 344.29 16.79 M344.29 16.79 C345.78 23.03, 345.02 30.71, 344.29 50.36 M344.29 16.79 C344.74 25.77, 343.23 36.6, 344.29 50.36 M344.29 50.36 C344.61 60.16, 338.63 66.03, 327.5 67.14 M344.29 50.36 C344.65 62.83, 340.96 67.1, 327.5 67.14 M327.5 67.14 C242.01 67.88, 155.85 65.93, 16.79 67.14 M327.5 67.14 C227.22 68.04, 126.6 67.18, 16.79 67.14 M16.79 67.14 C6.41 66.67, 1.73 59.88, 0 50.36 M16.79 67.14 C6.7 65.38, -0.79 59.58, 0 50.36 M0 50.36 C1.38 40.88, 1.04 33.36, 0 16.79 M0 50.36 C0.02 39.72, -0.07 30.12, 0 16.79 M0 16.79 C0.83 5.05, 4.17 -1.15, 16.79 0 M0 16.79 C1.21 6.48, 3.87 1.25, 16.79 0" stroke="#1e1e1e" stroke-width="1" fill="none"></path></g><g stroke-linecap="round"><g transform="translate(630.2857142857138 78.21428571428567) rotate(0 0.06240247315963643 32.757786092872664)"><path d="M-0.83 0.99 C-0.58 11.68, 0.64 53.09, 0.6 63.78 M0.93 0.47 C1.15 11.35, -0.09 54.6, -0.03 65.05" stroke="#1e1e1e" stroke-width="1" fill="none"></path></g></g><mask></mask><g stroke-linecap="round"><g transform="translate(718.7947403839826 79.74221390712728) rotate(0 -0.17641655873103446 31.46244232441569)"><path d="M0.75 -0.48 C0.9 10.29, -0.12 53.72, -0.1 64.71 M-0.32 -1.78 C-0.24 8.62, -1.24 51.89, -1.1 62.81" stroke="#1e1e1e" stroke-width="1" fill="none"></path></g></g><mask></mask><g stroke-linecap="round"><g transform="translate(814.5090260982688 78.31364247855595) rotate(0 0.184006741002122 33.15288223764196)"><path d="M0.42 0.85 C0.7 11.61, 1.24 53.69, 1.18 64.43 M-0.81 0.26 C-0.55 11.24, 0.83 55.51, 0.85 66.05" stroke="#1e1e1e" stroke-width="1" fill="none"></path></g></g><mask></mask><g transform="translate(577.4605309622602 94.99999999999989) rotate(0 9.968040466308594 17.5)"><text x="9.968040466308594" y="0" font-family="Virgil, Segoe UI Emoji" font-size="28px" fill="#1e1e1e" text-anchor="middle" style="white-space: pre;" direction="ltr" dominant-baseline="text-before-edge">2</text></g><g transform="translate(660.7516719273135 95) rotate(0 9.534042358398438 17.5)"><text x="9.534042358398438" y="0" font-family="Virgil, Segoe UI Emoji" font-size="28px" fill="#1e1e1e" text-anchor="middle" style="white-space: pre;" direction="ltr" dominant-baseline="text-before-edge">3</text></g><g transform="translate(755.6113913399822 96.42857142857133) rotate(0 8.960037231445312 17.5)"><text x="8.960037231445312" y="0" font-family="Virgil, Segoe UI Emoji" font-size="28px" fill="#1e1e1e" text-anchor="middle" style="white-space: pre;" direction="ltr" dominant-baseline="text-before-edge">4</text></g><g transform="translate(844.4908185686345 96.42857142857156) rotate(0 8.65203857421875 17.5)"><text x="8.65203857421875" y="0" font-family="Virgil, Segoe UI Emoji" font-size="28px" fill="#1e1e1e" text-anchor="middle" style="white-space: pre;" direction="ltr" dominant-baseline="text-before-edge">5</text></g><g stroke-linecap="round"><g transform="translate(587.4285714285706 85.35714285714278) rotate(0 0.056918415259133326 -19.240512381033625)"><path d="M-0.84 -0.99 C-0.87 -7.43, 0.84 -33.3, 0.96 -39.59 M0.91 1.11 C0.71 -5.14, 0.83 -32.16, 0.51 -38.58" stroke="#1e1e1e" stroke-width="1" fill="none"></path></g><g transform="translate(587.4285714285706 85.35714285714278) rotate(0 0.056918415259133326 -19.240512381033625)"><path d="M5.85 -19.04 C3.21 -27.94, 1.93 -34.15, 0.13 -37.33 M8.37 -20.04 C4.05 -28.16, 1.97 -34.64, 0.58 -39.5" stroke="#1e1e1e" stroke-width="1" fill="none"></path></g><g transform="translate(587.4285714285706 85.35714285714278) rotate(0 0.056918415259133326 -19.240512381033625)"><path d="M-7.34 -18.8 C-4.77 -27.7, -0.85 -34, 0.13 -37.33 M-4.82 -19.8 C-3.9 -28.08, -0.72 -34.66, 0.58 -39.5" stroke="#1e1e1e" stroke-width="1" fill="none"></path></g></g><mask></mask><g stroke-linecap="round"><g transform="translate(671.6573672990253 88.88336952389068) rotate(0 0.670403160841488 -19.576738886801195)"><path d="M1.08 0.18 C1.22 -6.39, 1.18 -32.84, 0.96 -39.33 M0.18 -0.78 C0.24 -7.2, 0.73 -32.07, 0.51 -38.19" stroke="#1e1e1e" stroke-width="1" fill="none"></path></g><g transform="translate(671.6573672990253 88.88336952389068) rotate(0 0.670403160841488 -19.576738886801195)"><path d="M7.46 -18.55 C3.91 -25.99, 2.81 -29.22, 0.73 -40.11 M7.31 -19.32 C6.01 -26.41, 2.27 -30.76, 1.46 -37.56" stroke="#1e1e1e" stroke-width="1" fill="none"></path></g><g transform="translate(671.6573672990253 88.88336952389068) rotate(0 0.670403160841488 -19.576738886801195)"><path d="M-5.73 -18.5 C-5.23 -26.08, -2.29 -29.32, 0.73 -40.11 M-5.89 -19.26 C-3.06 -26.31, -2.69 -30.68, 1.46 -37.56" stroke="#1e1e1e" stroke-width="1" fill="none"></path></g></g><mask></mask><g stroke-linecap="round"><g transform="translate(758.8002244418803 91.74051238103357) rotate(0 -0.08118534917048237 -19.564117599982467)"><path d="M-0.76 -0.25 C-0.82 -6.64, -0.32 -30.79, -0.17 -37.38 M1.05 -1.43 C0.8 -8.21, -0.94 -32.6, -1.21 -38.87" stroke="#1e1e1e" stroke-width="1" fill="none"></path></g><g transform="translate(758.8002244418803 91.74051238103357) rotate(0 -0.08118534917048237 -19.564117599982467)"><path d="M6.02 -21.44 C5.81 -26.57, -0.44 -32.12, -2.74 -39.77 M5.8 -22.06 C4.56 -25.7, 2.14 -33.07, -0.74 -39.08" stroke="#1e1e1e" stroke-width="1" fill="none"></path></g><g transform="translate(758.8002244418803 91.74051238103357) rotate(0 -0.08118534917048237 -19.564117599982467)"><path d="M-7.15 -20.67 C-3.23 -25.96, -5.33 -31.75, -2.74 -39.77 M-7.37 -21.29 C-4.49 -25.27, -2.79 -32.89, -0.74 -39.08" stroke="#1e1e1e" stroke-width="1" fill="none"></path></g></g><mask></mask><g stroke-linecap="round"><g transform="translate(853.0859387275977 93.16908380960513) rotate(0 -0.0007926050575406407 -19.14555300947802)"><path d="M1.19 0.13 C1.04 -6.24, -0.84 -31.88, -1.2 -38.42 M0.36 -0.84 C0.57 -6.99, 0.71 -30.6, 0.89 -36.81" stroke="#1e1e1e" stroke-width="1" fill="none"></path></g><g transform="translate(853.0859387275977 93.16908380960513) rotate(0 -0.0007926050575406407 -19.14555300947802)"><path d="M7.4 -20.5 C5.69 -25.14, 2.81 -28.43, 2.44 -35.27 M8.14 -17.95 C5 -22.34, 4.2 -28.03, 0.62 -36.98" stroke="#1e1e1e" stroke-width="1" fill="none"></path></g><g transform="translate(853.0859387275977 93.16908380960513) rotate(0 -0.0007926050575406407 -19.14555300947802)"><path d="M-5.79 -20.72 C-3.82 -25.42, -3.03 -28.66, 2.44 -35.27 M-5.05 -18.17 C-5.1 -22.6, -2.81 -28.23, 0.62 -36.98" stroke="#1e1e1e" stroke-width="1" fill="none"></path></g></g><mask></mask><g transform="translate(580.6185814993714 11.428571428571445) rotate(0 6.809989929199219 12.5)"><text x="6.809989929199219" y="0" font-family="Virgil, Segoe UI Emoji" font-size="20px" fill="#e03131" text-anchor="middle" style="white-space: pre;" direction="ltr" dominant-baseline="text-before-edge">3</text></g><g transform="translate(656.6143024989524 11.428571428571445) rotate(0 15.099983215332031 12.5)"><text x="15.099983215332031" y="0" font-family="Virgil, Segoe UI Emoji" font-size="20px" fill="#e03131" text-anchor="middle" style="white-space: pre;" direction="ltr" dominant-baseline="text-before-edge">5.5</text></g><g transform="translate(743.1271623883931 10) rotate(0 15.72998046875 12.5)"><text x="15.72998046875" y="0" font-family="Virgil, Segoe UI Emoji" font-size="20px" fill="#e03131" text-anchor="middle" style="white-space: pre;" direction="ltr" dominant-baseline="text-before-edge">3.5</text></g><g transform="translate(834.5085885184126 14.28571428571422) rotate(0 22.91998291015625 12.5)"><text x="22.91998291015625" y="0" font-family="Virgil, Segoe UI Emoji" font-size="20px" fill="#e03131" text-anchor="middle" style="white-space: pre;" direction="ltr" dominant-baseline="text-before-edge">0.25</text></g><g stroke-linecap="round"><g transform="translate(472.4476915492214 193.43349316661363) rotate(0 34.095282498884444 -1.2531624453059749)"><path d="M0.27 -0.51 C11.67 -0.86, 57.72 -1.77, 69.23 -2 M-1.04 -1.82 C10.17 -2.01, 56.95 -0.83, 68.63 -0.64" stroke="#1e1e1e" stroke-width="1" fill="none"></path></g><g transform="translate(472.4476915492214 193.43349316661363) rotate(0 34.095282498884444 -1.2531624453059749)"><path d="M39.39 10.14 C50.22 6.7, 60.99 1.73, 67.01 0.68 M39.94 8.94 C49.03 5.65, 59.84 1.87, 68.36 -1.57" stroke="#1e1e1e" stroke-width="1" fill="none"></path></g><g transform="translate(472.4476915492214 193.43349316661363) rotate(0 34.095282498884444 -1.2531624453059749)"><path d="M39.82 -10.38 C50.51 -6.17, 61.13 -3.5, 67.01 0.68 M40.37 -11.57 C49.51 -7.98, 60.18 -4.88, 68.36 -1.57" stroke="#1e1e1e" stroke-width="1" fill="none"></path></g></g><mask></mask><g stroke-linecap="round"><g transform="translate(481.0191201206526 289.14777888089907) rotate(0 33.99687818837083 -0.43351785781902663)"><path d="M-0.35 0.8 C11.13 0.42, 57.02 -1.39, 68.34 -1.67 M1.67 0.18 C13.01 -0.06, 55.89 0.35, 67.27 -0.14" stroke="#1e1e1e" stroke-width="1" fill="none"></path></g><g transform="translate(481.0191201206526 289.14777888089907) rotate(0 33.99687818837083 -0.43351785781902663)"><path d="M40.57 10.13 C46.37 6.22, 54.95 5.81, 69.25 -1.84 M38.86 11.16 C45.92 7.54, 53.49 5.55, 66.71 0.39" stroke="#1e1e1e" stroke-width="1" fill="none"></path></g><g transform="translate(481.0191201206526 289.14777888089907) rotate(0 33.99687818837083 -0.43351785781902663)"><path d="M40.28 -10.39 C46.26 -9, 54.92 -4.13, 69.25 -1.84 M38.57 -9.36 C45.69 -7.43, 53.34 -3.86, 66.71 0.39" stroke="#1e1e1e" stroke-width="1" fill="none"></path></g></g><mask></mask><g stroke-linecap="round"><g transform="translate(481.0191201206526 380.5763503094706) rotate(0 33.72345208477964 -1.3849643433384813)"><path d="M-1.02 -0.35 C10.32 -0.95, 56.94 -2.33, 68.47 -2.42 M0.65 -1.58 C11.78 -1.54, 56.38 -1.08, 67.46 -1.28" stroke="#1e1e1e" stroke-width="1" fill="none"></path></g><g transform="translate(481.0191201206526 380.5763503094706) rotate(0 33.72345208477964 -1.3849643433384813)"><path d="M38.71 8.86 C47.36 5.07, 59.38 0.54, 66.92 -3.14 M38.64 9.19 C49.97 4.21, 60.55 1.45, 67.82 -0.85" stroke="#1e1e1e" stroke-width="1" fill="none"></path></g><g transform="translate(481.0191201206526 380.5763503094706) rotate(0 33.72345208477964 -1.3849643433384813)"><path d="M38.67 -11.66 C47.54 -8.57, 59.57 -6.21, 66.92 -3.14 M38.6 -11.33 C49.83 -8.87, 60.43 -4.18, 67.82 -0.85" stroke="#1e1e1e" stroke-width="1" fill="none"></path></g></g><mask></mask><g stroke-linecap="round" transform="translate(581.7142857142844 188.21428571428567) rotate(0 4.2857142857146755 5.714285714285722)"><path d="M3.24 0.38 C4.08 0.18, 4.78 0.3, 5.7 0.93 C6.63 1.56, 8.51 3.06, 8.81 4.16 C9.12 5.25, 7.79 6.52, 7.52 7.51 C7.25 8.5, 7.64 9.53, 7.21 10.1 C6.78 10.67, 5.94 10.96, 4.93 10.92 C3.93 10.88, 1.93 10.79, 1.17 9.85 C0.41 8.92, 0.49 6.58, 0.4 5.29 C0.31 3.99, 0.23 2.96, 0.65 2.08 C1.08 1.19, 2.21 0.41, 2.93 -0.02 C3.66 -0.45, 4.96 -0.6, 5.01 -0.49 M1.44 -0.3 C2.2 -0.92, 5.78 -1.16, 6.75 -0.59 C7.72 -0.02, 7.01 2.06, 7.27 3.12 C7.53 4.18, 8.44 4.81, 8.32 5.75 C8.2 6.69, 7.01 7.93, 6.55 8.76 C6.09 9.59, 6.22 10.3, 5.56 10.72 C4.9 11.15, 3.45 11.88, 2.6 11.3 C1.76 10.73, 0.92 8.91, 0.49 7.28 C0.06 5.65, -0.43 2.57, 0.01 1.5 C0.45 0.43, 2.59 0.98, 3.11 0.87 C3.64 0.75, 2.95 0.62, 3.16 0.82" stroke="none" stroke-width="0" fill="#1e1e1e"></path><path d="M5.38 0.07 C6.25 0.31, 7.28 1.15, 7.65 2.07 C8.01 3, 7.6 4.38, 7.57 5.62 C7.53 6.86, 7.75 8.61, 7.44 9.52 C7.12 10.43, 6.61 10.95, 5.69 11.06 C4.77 11.16, 2.78 10.63, 1.91 10.15 C1.04 9.67, 0.62 9.32, 0.47 8.18 C0.31 7.04, 0.72 4.64, 1 3.31 C1.28 1.97, 1.49 0.64, 2.16 0.16 C2.83 -0.32, 4.41 0.32, 5.03 0.44 C5.65 0.55, 5.76 0.73, 5.9 0.85 M6.32 -0.31 C6.9 -0.27, 6.17 1.06, 6.6 2.02 C7.04 2.97, 8.66 4.12, 8.95 5.4 C9.25 6.68, 9.21 8.51, 8.36 9.69 C7.51 10.88, 4.96 12.68, 3.83 12.52 C2.7 12.37, 1.97 9.83, 1.58 8.77 C1.19 7.7, 1.76 7.15, 1.5 6.12 C1.24 5.1, -0.37 3.45, 0.01 2.6 C0.39 1.75, 2.73 1.3, 3.78 1 C4.82 0.71, 5.91 0.72, 6.27 0.83 C6.63 0.95, 6.31 1.55, 5.93 1.68" stroke="#1e1e1e" stroke-width="1" fill="none"></path></g><g stroke-linecap="round" transform="translate(598.8571428571413 186.7857142857141) rotate(0 4.2857142857146755 5.714285714285722)"><path d="M1.53 0.59 C2.42 -0.05, 5.02 -0.75, 5.97 -0.48 C6.91 -0.21, 6.87 1.03, 7.18 2.24 C7.5 3.44, 7.83 5.69, 7.87 6.75 C7.92 7.82, 8.03 7.73, 7.46 8.61 C6.89 9.49, 5.47 11.79, 4.46 12.04 C3.45 12.28, 2.07 10.86, 1.4 10.08 C0.72 9.3, 0.67 8.5, 0.39 7.37 C0.1 6.23, -0.61 4.3, -0.33 3.26 C-0.04 2.22, 1.5 1.52, 2.1 1.12 C2.71 0.72, 3 0.88, 3.3 0.87 M5.39 0.63 C6.41 1.06, 7.16 1.43, 7.92 2.48 C8.69 3.54, 10.02 5.82, 9.98 6.97 C9.94 8.12, 8.47 8.4, 7.68 9.37 C6.89 10.33, 6.23 12.47, 5.24 12.75 C4.26 13.03, 2.61 12.14, 1.76 11.03 C0.92 9.92, 0.53 7.12, 0.17 6.09 C-0.19 5.06, -0.62 5.98, -0.39 4.86 C-0.16 3.75, 0.52 0.34, 1.57 -0.59 C2.61 -1.52, 5.11 -0.94, 5.88 -0.73 C6.64 -0.51, 6.37 0.57, 6.14 0.7" stroke="none" stroke-width="0" fill="#1e1e1e"></path><path d="M2.34 1.03 C3.12 0.66, 4.74 0.42, 5.79 0.7 C6.84 0.98, 8.08 1.79, 8.65 2.7 C9.21 3.6, 9.29 4.91, 9.18 6.13 C9.07 7.36, 8.79 9.31, 8.01 10.04 C7.23 10.77, 5.56 10.38, 4.49 10.51 C3.42 10.64, 2.42 11.21, 1.59 10.84 C0.76 10.46, -0.26 9.54, -0.5 8.26 C-0.74 6.98, -0.58 4.49, 0.16 3.14 C0.9 1.78, 3.42 0.47, 3.93 0.12 C4.43 -0.23, 3.38 1, 3.19 1.05 M4.3 0.64 C5.03 0.51, 6.44 1.45, 6.87 2.12 C7.3 2.79, 6.52 3.79, 6.87 4.66 C7.23 5.53, 9.22 6.43, 9 7.33 C8.78 8.22, 6.65 9.32, 5.55 10.01 C4.46 10.7, 3.14 11.68, 2.42 11.48 C1.7 11.28, 1.51 9.6, 1.22 8.79 C0.92 7.98, 0.43 7.98, 0.63 6.62 C0.83 5.25, 1.82 1.58, 2.41 0.6 C3 -0.39, 4.03 0.55, 4.16 0.72 C4.3 0.9, 3.44 1.69, 3.23 1.65" stroke="#1e1e1e" stroke-width="1" fill="none"></path></g><g stroke-linecap="round" transform="translate(617.4285714285688 188.21428571428567) rotate(0 4.2857142857146755 5.714285714285722)"><path d="M2.14 -0.09 C2.96 -0.83, 4.61 -0.86, 5.72 -0.39 C6.83 0.08, 8.49 1.65, 8.81 2.74 C9.12 3.84, 7.77 5.06, 7.6 6.17 C7.43 7.28, 8.39 8.49, 7.77 9.39 C7.15 10.3, 4.93 11.58, 3.88 11.6 C2.83 11.62, 2.16 10.47, 1.47 9.52 C0.78 8.58, -0.23 7.1, -0.25 5.93 C-0.26 4.75, 0.7 3.3, 1.38 2.48 C2.07 1.67, 3.43 1.34, 3.84 1.02 C4.25 0.71, 3.98 0.78, 3.82 0.59 M5.07 1.43 C6.05 1.45, 7.94 1.19, 8.51 1.87 C9.07 2.56, 8.35 4.42, 8.46 5.56 C8.57 6.7, 9.61 7.79, 9.16 8.72 C8.71 9.66, 7.14 10.94, 5.77 11.18 C4.4 11.43, 1.65 10.82, 0.95 10.19 C0.25 9.57, 1.93 8.31, 1.58 7.43 C1.23 6.56, -1.06 5.85, -1.15 4.95 C-1.24 4.05, -0.02 2.97, 1.03 2.05 C2.09 1.14, 4.67 -0.28, 5.18 -0.52 C5.69 -0.75, 4.29 0.29, 4.09 0.65" stroke="none" stroke-width="0" fill="#1e1e1e"></path><path d="M4.99 0.99 C5.88 0.95, 7.01 1.32, 7.63 2.06 C8.26 2.8, 8.61 4.39, 8.74 5.43 C8.87 6.48, 9.09 7.45, 8.43 8.33 C7.77 9.21, 5.68 10.39, 4.77 10.72 C3.86 11.05, 3.56 10.72, 2.98 10.32 C2.4 9.91, 1.85 9.11, 1.3 8.27 C0.74 7.43, -0.39 6.63, -0.34 5.29 C-0.3 3.95, 0.58 1.21, 1.56 0.24 C2.55 -0.73, 5.06 -0.47, 5.55 -0.53 C6.03 -0.6, 4.53 -0.41, 4.49 -0.16 M6.58 -1.31 C7.48 -1.06, 8.27 1.92, 8.53 3.01 C8.79 4.1, 8.44 4.29, 8.14 5.22 C7.83 6.15, 7.24 7.51, 6.71 8.58 C6.18 9.65, 5.83 11.22, 4.95 11.65 C4.06 12.07, 2.03 11.61, 1.41 11.12 C0.78 10.64, 1.58 9.91, 1.17 8.72 C0.77 7.54, -1.33 5.43, -1.03 4.01 C-0.72 2.6, 1.71 0.99, 3.01 0.22 C4.3 -0.55, 6.39 -0.61, 6.73 -0.59 C7.08 -0.57, 5.24 0.38, 5.07 0.35" stroke="#1e1e1e" stroke-width="1" fill="none"></path></g><g stroke-linecap="round" transform="translate(578.1428571428569 283.21428571428544) rotate(0 4.2857142857146755 5.714285714285722)"><path d="M6.09 1.35 C6.87 1.78, 7.47 2.56, 7.86 3.32 C8.25 4.08, 8.66 4.64, 8.43 5.92 C8.2 7.21, 7.26 10.25, 6.47 11.02 C5.68 11.79, 4.46 10.82, 3.7 10.55 C2.94 10.28, 2.42 10.02, 1.93 9.4 C1.43 8.78, 1.02 8.01, 0.74 6.82 C0.47 5.63, -0.14 3.44, 0.29 2.27 C0.72 1.1, 2.09 0.17, 3.31 -0.18 C4.52 -0.52, 6.88 -0.32, 7.57 0.2 C8.25 0.73, 7.68 2.57, 7.4 2.97 M2.34 -1.31 C3.52 -1.34, 6.7 0.97, 7.81 1.9 C8.91 2.83, 9.11 3.06, 8.99 4.27 C8.87 5.47, 7.42 8.11, 7.08 9.12 C6.74 10.13, 7.49 10.15, 6.93 10.33 C6.38 10.51, 4.76 10.49, 3.76 10.19 C2.77 9.9, 1.72 9.43, 0.95 8.57 C0.17 7.71, -1.03 6.14, -0.87 5.04 C-0.71 3.93, 1.37 2.84, 1.92 1.93 C2.46 1.02, 1.92 -0.31, 2.4 -0.42 C2.88 -0.53, 4.63 1.19, 4.8 1.28" stroke="none" stroke-width="0" fill="#1e1e1e"></path><path d="M4.89 -0.26 C5.55 0.05, 6.48 1.55, 7.12 2.58 C7.76 3.61, 8.62 4.6, 8.72 5.91 C8.82 7.22, 8.24 9.69, 7.71 10.45 C7.18 11.22, 6.45 10.44, 5.53 10.49 C4.61 10.55, 3.11 11.2, 2.17 10.8 C1.22 10.4, 0.25 9.4, -0.12 8.12 C-0.5 6.85, -0.52 4.34, -0.08 3.14 C0.37 1.93, 1.79 1.39, 2.57 0.89 C3.35 0.4, 4.15 0.37, 4.61 0.17 C5.07 -0.02, 5.18 -0.53, 5.31 -0.29 M1.97 1.53 C2.9 0.88, 5 -1.36, 5.92 -0.93 C6.83 -0.51, 7.18 2.9, 7.45 4.09 C7.72 5.29, 7.58 5.25, 7.53 6.25 C7.48 7.24, 7.87 9.29, 7.14 10.08 C6.41 10.86, 4.31 10.75, 3.12 10.93 C1.94 11.12, 0.68 11.76, 0.05 11.19 C-0.59 10.62, -0.98 8.87, -0.67 7.51 C-0.36 6.15, 1.18 4.35, 1.89 3.05 C2.6 1.75, 3.62 0.09, 3.59 -0.31 C3.55 -0.71, 1.67 0.42, 1.69 0.66" stroke="#1e1e1e" stroke-width="1" fill="none"></path></g><g stroke-linecap="round" transform="translate(595.285714285712 281.7857142857139) rotate(0 4.2857142857146755 5.714285714285722)"><path d="M3.94 0.28 C4.77 -0.15, 6.21 -0.61, 6.89 0.23 C7.57 1.07, 7.91 4.12, 8.03 5.34 C8.16 6.56, 7.91 6.69, 7.64 7.54 C7.36 8.39, 7.06 9.81, 6.39 10.46 C5.73 11.12, 4.67 11.82, 3.65 11.46 C2.63 11.11, 0.83 9.49, 0.28 8.32 C-0.27 7.15, 0.07 5.75, 0.38 4.45 C0.69 3.14, 1.39 1.11, 2.12 0.5 C2.85 -0.12, 4.29 0.6, 4.78 0.76 C5.26 0.92, 5.07 1.56, 5.05 1.47 M5.25 1.04 C6.45 1.17, 7.1 0.66, 7.44 1.42 C7.78 2.18, 7.05 4.55, 7.27 5.62 C7.49 6.68, 8.91 7.1, 8.77 7.81 C8.62 8.51, 7.32 9.37, 6.38 9.83 C5.44 10.28, 4.22 10.77, 3.13 10.54 C2.04 10.3, 0.23 9.31, -0.15 8.41 C-0.53 7.51, 0.81 6.36, 0.84 5.14 C0.87 3.92, -0.68 1.78, 0.03 1.11 C0.74 0.45, 4.5 1.37, 5.1 1.13 C5.7 0.88, 3.88 -0.19, 3.64 -0.37" stroke="none" stroke-width="0" fill="#1e1e1e"></path><path d="M2.98 0.16 C3.95 -0.06, 5.75 -0.23, 6.72 0.51 C7.68 1.24, 8.37 3.52, 8.78 4.59 C9.19 5.66, 9.52 5.82, 9.17 6.92 C8.82 8.02, 7.68 10.29, 6.68 11.19 C5.67 12.08, 4.19 12.63, 3.15 12.28 C2.1 11.94, 0.94 10.19, 0.42 9.13 C-0.09 8.07, 0.11 7.13, 0.06 5.91 C0.01 4.69, -0.59 2.91, 0.11 1.81 C0.81 0.7, 3.36 -0.61, 4.26 -0.71 C5.16 -0.82, 5.57 1.06, 5.53 1.2 M4.36 -1.38 C5.31 -1.47, 5.94 1.51, 6.47 2.43 C7.01 3.34, 7.3 3.12, 7.58 4.13 C7.87 5.15, 8.69 7.42, 8.2 8.51 C7.72 9.59, 5.83 10.01, 4.7 10.64 C3.56 11.27, 2.2 12.5, 1.39 12.31 C0.58 12.12, -0.17 10.74, -0.18 9.52 C-0.2 8.3, 0.9 6.48, 1.3 5.01 C1.69 3.53, 1.9 1.47, 2.19 0.68 C2.48 -0.1, 2.58 0.34, 3.04 0.29 C3.49 0.25, 4.63 0.14, 4.91 0.42" stroke="#1e1e1e" stroke-width="1" fill="none"></path></g><g stroke-linecap="round" transform="translate(613.8571428571395 283.21428571428544) rotate(0 4.2857142857146755 5.714285714285722)"><path d="M6.16 -0.39 C6.93 0.16, 7.47 3.1, 7.77 4.24 C8.07 5.38, 8.07 5.53, 7.97 6.47 C7.86 7.42, 7.74 9.06, 7.16 9.93 C6.58 10.8, 5.56 11.83, 4.5 11.71 C3.44 11.6, 1.5 10.25, 0.81 9.24 C0.12 8.22, 0.22 6.91, 0.34 5.6 C0.47 4.29, 1.08 2.14, 1.54 1.35 C1.99 0.55, 2.33 0.72, 3.09 0.84 C3.84 0.96, 5.42 1.99, 6.06 2.06 C6.71 2.13, 6.89 1.49, 6.94 1.26 M3.03 0.9 C3.39 0.36, 3.25 1.27, 4.14 1.44 C5.03 1.61, 7.59 1.33, 8.39 1.93 C9.19 2.52, 9.09 3.82, 8.93 5 C8.76 6.18, 8.25 8.03, 7.4 9.02 C6.56 10, 4.64 10.67, 3.86 10.92 C3.08 11.16, 3.54 11.18, 2.71 10.49 C1.88 9.81, -0.91 7.81, -1.12 6.81 C-1.32 5.81, 0.94 5.62, 1.47 4.5 C1.99 3.38, 1.94 0.81, 2.04 0.09 C2.14 -0.64, 1.86 0.01, 2.08 0.15" stroke="none" stroke-width="0" fill="#1e1e1e"></path><path d="M3.47 -0.2 C4.49 -0.45, 5.68 0.81, 6.63 1.27 C7.57 1.73, 8.77 1.45, 9.13 2.53 C9.49 3.62, 9.22 6.3, 8.76 7.79 C8.3 9.28, 7.29 10.88, 6.38 11.47 C5.47 12.05, 4.15 11.52, 3.3 11.27 C2.44 11.03, 1.94 10.9, 1.23 10.01 C0.52 9.13, -0.84 7.36, -0.97 5.95 C-1.1 4.54, -0.31 2.41, 0.44 1.57 C1.19 0.72, 3.05 1.19, 3.54 0.87 C4.02 0.55, 3.31 -0.19, 3.34 -0.34 M5.41 1.51 C6.07 2.03, 6.66 1.61, 7.21 2.51 C7.76 3.42, 8.93 5.72, 8.7 6.95 C8.47 8.17, 6.84 8.91, 5.83 9.87 C4.81 10.83, 3.5 12.52, 2.63 12.69 C1.75 12.85, 0.82 11.87, 0.58 10.87 C0.35 9.87, 1.11 8.19, 1.23 6.7 C1.36 5.21, 1.23 2.95, 1.32 1.92 C1.41 0.89, 0.9 0.69, 1.78 0.5 C2.65 0.32, 5.81 0.57, 6.58 0.82 C7.34 1.07, 6.31 1.96, 6.39 2.02" stroke="#1e1e1e" stroke-width="1" fill="none"></path></g><g stroke-linecap="round" transform="translate(576.7142857142862 371.7857142857141) rotate(0 4.2857142857146755 5.714285714285722)"><path d="M2.46 0.66 C3.07 0.52, 4.67 0.92, 5.68 1.33 C6.7 1.74, 8.17 2.06, 8.55 3.13 C8.94 4.2, 8.38 6.39, 7.98 7.73 C7.58 9.08, 7.02 10.63, 6.16 11.2 C5.3 11.78, 3.52 11.56, 2.79 11.18 C2.07 10.79, 2.13 9.8, 1.83 8.89 C1.53 7.98, 1.24 6.85, 1 5.72 C0.76 4.59, 0.15 3.22, 0.41 2.13 C0.67 1.04, 1.9 -0.6, 2.58 -0.81 C3.26 -1.02, 4.25 0.59, 4.48 0.87 M2.22 0.8 C2.6 0.19, 3.62 0.14, 4.46 0.3 C5.3 0.46, 6.64 0.6, 7.23 1.77 C7.83 2.93, 8.06 6.13, 8.05 7.27 C8.05 8.42, 7.9 7.77, 7.22 8.64 C6.55 9.51, 4.74 12.31, 4 12.52 C3.26 12.73, 3.52 10.87, 2.79 9.88 C2.06 8.9, 0.08 7.59, -0.39 6.59 C-0.86 5.58, -0.53 4.82, -0.05 3.85 C0.43 2.87, 2.01 1.15, 2.47 0.75 C2.92 0.34, 2.79 1.61, 2.69 1.42" stroke="none" stroke-width="0" fill="#1e1e1e"></path><path d="M4.26 0.49 C5.09 0.47, 7.22 1.11, 8.1 1.94 C8.98 2.76, 9.67 4.14, 9.55 5.42 C9.42 6.7, 8.07 8.77, 7.35 9.6 C6.64 10.43, 6.17 10.3, 5.26 10.39 C4.35 10.48, 2.88 10.65, 1.92 10.15 C0.95 9.65, -0.39 8.6, -0.53 7.4 C-0.66 6.2, 0.72 4.08, 1.11 2.97 C1.5 1.86, 1.16 1.02, 1.8 0.72 C2.44 0.41, 4.23 1.31, 4.93 1.14 C5.63 0.97, 5.98 -0.36, 6 -0.3 M2.78 -0.68 C3.63 -1.37, 4.31 -1.41, 5.41 -0.91 C6.5 -0.41, 8.66 0.83, 9.35 2.33 C10.04 3.84, 9.88 6.71, 9.55 8.12 C9.22 9.53, 8.34 10.47, 7.34 10.8 C6.35 11.12, 4.5 10.12, 3.56 10.07 C2.62 10.02, 2.24 11.01, 1.71 10.48 C1.17 9.94, 0.29 7.98, 0.35 6.87 C0.41 5.76, 1.6 4.95, 2.06 3.84 C2.52 2.72, 2.92 0.53, 3.12 0.18 C3.33 -0.16, 3.33 1.6, 3.28 1.78" stroke="#1e1e1e" stroke-width="1" fill="none"></path></g><g stroke-linecap="round" transform="translate(593.8571428571413 370.35714285714255) rotate(0 4.2857142857146755 5.714285714285722)"><path d="M2.82 0.83 C3.86 0.37, 5.77 -0.22, 6.6 0.29 C7.44 0.8, 7.63 2.58, 7.85 3.89 C8.07 5.2, 8.29 7.07, 7.91 8.15 C7.54 9.22, 6.2 9.92, 5.61 10.34 C5.02 10.76, 4.98 10.84, 4.39 10.66 C3.81 10.49, 2.92 10.08, 2.11 9.27 C1.3 8.46, -0.1 7.13, -0.46 5.8 C-0.81 4.47, -0.91 2.16, 0 1.31 C0.91 0.45, 4.09 0.84, 4.98 0.69 C5.87 0.54, 5.59 0.27, 5.32 0.39 M4.07 0.16 C4.9 0.13, 6.34 0.24, 7 1.33 C7.67 2.43, 8 5.59, 8.09 6.74 C8.17 7.9, 8.12 7.31, 7.51 8.26 C6.89 9.22, 5.13 12.15, 4.39 12.47 C3.66 12.79, 3.9 11.08, 3.12 10.19 C2.34 9.29, 0.27 8.08, -0.29 7.1 C-0.84 6.12, -0.62 5.35, -0.22 4.33 C0.18 3.31, 1.2 1.53, 2.11 0.97 C3.01 0.42, 4.84 1.35, 5.2 1 C5.55 0.66, 4.39 -1.08, 4.23 -1.11" stroke="none" stroke-width="0" fill="#1e1e1e"></path><path d="M6.6 0.32 C7.72 0.62, 8.9 1.73, 9.18 2.9 C9.46 4.07, 8.64 6.26, 8.29 7.35 C7.94 8.45, 7.82 8.87, 7.06 9.47 C6.3 10.08, 4.84 10.97, 3.74 10.99 C2.64 11.01, 0.95 10.51, 0.46 9.6 C-0.02 8.69, 0.83 6.71, 0.81 5.51 C0.79 4.31, 0.05 3.15, 0.35 2.4 C0.64 1.65, 1.44 1.35, 2.55 1.02 C3.67 0.69, 6.24 0.08, 7.03 0.42 C7.81 0.77, 7.41 2.95, 7.26 3.1 M4.17 -1.31 C5.28 -1.24, 7.68 -0.32, 8.59 0.97 C9.5 2.26, 9.69 4.99, 9.63 6.43 C9.57 7.86, 9.02 8.99, 8.22 9.56 C7.42 10.14, 5.74 9.57, 4.83 9.88 C3.92 10.19, 3.46 11.65, 2.77 11.42 C2.08 11.19, 0.91 9.5, 0.71 8.5 C0.51 7.5, 1.34 6.66, 1.55 5.4 C1.76 4.14, 1.42 1.6, 1.98 0.94 C2.55 0.28, 4.55 1.48, 4.94 1.41 C5.33 1.35, 4.4 0.94, 4.33 0.55" stroke="#1e1e1e" stroke-width="1" fill="none"></path></g><g stroke-linecap="round" transform="translate(612.4285714285688 371.7857142857141) rotate(0 4.2857142857146755 5.714285714285722)"><path d="M5.7 -0.18 C6.58 -0.01, 6.98 1.58, 7.38 2.75 C7.78 3.93, 8.27 5.75, 8.1 6.88 C7.93 8.01, 6.82 8.9, 6.37 9.53 C5.91 10.17, 5.95 10.59, 5.36 10.69 C4.77 10.79, 3.78 10.73, 2.84 10.13 C1.89 9.53, 0.25 8.37, -0.31 7.08 C-0.87 5.8, -1.1 3.39, -0.5 2.41 C0.1 1.44, 2.21 1.56, 3.29 1.23 C4.37 0.91, 5.71 0.46, 5.98 0.47 C6.26 0.48, 4.95 1.29, 4.93 1.3 M4.14 -0.83 C5.12 -0.63, 6.19 1.81, 6.94 2.63 C7.68 3.46, 8.56 2.86, 8.61 4.13 C8.66 5.4, 7.6 9.12, 7.23 10.25 C6.86 11.38, 7.26 10.89, 6.36 10.92 C5.47 10.95, 2.94 10.81, 1.85 10.44 C0.76 10.07, 0.11 9.73, -0.19 8.71 C-0.5 7.7, -0.35 5.51, 0.01 4.35 C0.37 3.2, 1.32 2.74, 1.96 1.8 C2.61 0.85, 3.54 -1.05, 3.87 -1.31 C4.2 -1.56, 4.04 -0.27, 3.94 0.27" stroke="none" stroke-width="0" fill="#1e1e1e"></path><path d="M6.05 -0.4 C6.83 -0.2, 7 1.28, 7.48 2.14 C7.96 3.01, 8.96 3.64, 8.95 4.79 C8.94 5.94, 8.23 7.95, 7.44 9.03 C6.66 10.11, 5.01 11.1, 4.25 11.27 C3.49 11.44, 3.65 10.63, 2.9 10.03 C2.16 9.43, 0.32 8.58, -0.23 7.66 C-0.79 6.75, -0.82 5.86, -0.42 4.56 C-0.03 3.25, 1.29 0.44, 2.16 -0.18 C3.04 -0.8, 4.4 0.81, 4.84 0.82 C5.28 0.82, 4.74 -0.11, 4.82 -0.15 M4.22 -0.42 C5.29 -0.43, 6.23 0.95, 6.95 1.62 C7.66 2.28, 8.32 2.93, 8.49 3.58 C8.65 4.23, 8.12 4.33, 7.91 5.52 C7.71 6.71, 7.81 9.68, 7.23 10.72 C6.66 11.77, 5.2 11.72, 4.46 11.79 C3.73 11.86, 3.55 12.03, 2.84 11.14 C2.13 10.24, 0.52 7.61, 0.2 6.44 C-0.12 5.27, 0.52 5.06, 0.93 4.1 C1.33 3.14, 2.3 1.57, 2.63 0.7 C2.96 -0.16, 2.94 -1.31, 2.9 -1.09" stroke="#1e1e1e" stroke-width="1" fill="none"></path></g><g stroke-linecap="round"><g transform="translate(480.8479764866461 462.456392914767) rotate(0 34.3070578454317 -1.033945450797546)"><path d="M0.25 0.29 C11.82 0.1, 58.29 -0.39, 69.7 -0.73 M-1.08 -0.6 C10.41 -1.15, 57.83 -2.39, 69.34 -2.36" stroke="#1e1e1e" stroke-width="1" fill="none"></path></g><g transform="translate(480.8479764866461 462.456392914767) rotate(0 34.3070578454317 -1.033945450797546)"><path d="M41.79 10.19 C51.77 5.05, 59.06 1.81, 71.2 -2.79 M40.85 9.11 C50.07 4.22, 60.2 1.04, 70.04 -2.04" stroke="#1e1e1e" stroke-width="1" fill="none"></path></g><g transform="translate(480.8479764866461 462.456392914767) rotate(0 34.3070578454317 -1.033945450797546)"><path d="M41.49 -10.33 C51.64 -8.91, 59.02 -5.59, 71.2 -2.79 M40.55 -11.41 C49.86 -9.57, 60.09 -6.03, 70.04 -2.04" stroke="#1e1e1e" stroke-width="1" fill="none"></path></g></g><mask></mask><g stroke-linecap="round" transform="translate(584.5714285714275 436.7857142857142) rotate(0 69.99999999999909 32.14285714285717)"><path d="M16.07 0 M16.07 0 C47.32 -0.45, 79.33 -2.98, 123.93 0 M16.07 0 C42.71 0.98, 70.53 1.16, 123.93 0 M123.93 0 C135.28 -0.73, 139.19 6.03, 140 16.07 M123.93 0 C133.6 1.59, 137.79 4.88, 140 16.07 M140 16.07 C139.21 27, 139.5 37.97, 140 48.21 M140 16.07 C140.69 23.01, 139.48 30.36, 140 48.21 M140 48.21 C140.85 58.36, 135.13 62.8, 123.93 64.29 M140 48.21 C140.05 57.91, 133.3 63.55, 123.93 64.29 M123.93 64.29 C85.07 64.83, 48.96 62.88, 16.07 64.29 M123.93 64.29 C95.62 63.78, 66.5 63.91, 16.07 64.29 M16.07 64.29 C6.53 63.04, -1.8 57.79, 0 48.21 M16.07 64.29 C5.53 62.08, 1.99 60.87, 0 48.21 M0 48.21 C-1.19 42.4, -1.03 35.08, 0 16.07 M0 48.21 C-0.19 37.82, 0.18 28.17, 0 16.07 M0 16.07 C-1.7 4.24, 6.93 -1.93, 16.07 0 M0 16.07 C-0.97 3.54, 6.47 1.79, 16.07 0" stroke="#1e1e1e" stroke-width="1" fill="none"></path></g><g stroke-linecap="round"><g transform="translate(651.7142857142844 438.21428571428567) rotate(0 0.6074939132959116 27.142792914288947)"><path d="M0.71 0.44 C0.44 9.75, -0.4 45.71, -0.6 54.66 M-0.37 -0.38 C-0.33 8.66, 1.99 43.45, 1.8 52.74" stroke="#1e1e1e" stroke-width="1" fill="none"></path></g></g><mask></mask><g transform="translate(617.9202717372355 447.85714285714266) rotate(0 3.7940139770507812 17.5)"><text x="3.7940139770507812" y="0" font-family="Virgil, Segoe UI Emoji" font-size="28px" fill="#1e1e1e" text-anchor="middle" style="white-space: pre;" direction="ltr" dominant-baseline="text-before-edge">1</text></g><g transform="translate(677.460530962262 453.5714285714283) rotate(0 9.968040466308594 17.5)"><text x="9.968040466308594" y="0" font-family="Virgil, Segoe UI Emoji" font-size="28px" fill="#1e1e1e" text-anchor="middle" style="white-space: pre;" direction="ltr" dominant-baseline="text-before-edge">2</text></g><g stroke-linecap="round"><g transform="translate(620.2857142857138 493.92857142857133) rotate(0 -0.025702890359752928 20.859069489253955)"><path d="M-1.14 -1.16 C-1.35 5.67, -1.21 34.36, -1.02 41.37 M0.47 0.85 C0.6 7.85, 1.37 36.03, 1.15 42.87" stroke="#1e1e1e" stroke-width="1" fill="none"></path></g><g transform="translate(620.2857142857138 493.92857142857133) rotate(0 -0.025702890359752928 20.859069489253955)"><path d="M-7.91 21.72 C-3.74 29.63, -2.29 33.98, 2.47 43.44 M-5.85 22.75 C-4.47 29.56, -1.23 33.84, 1.17 43.46" stroke="#1e1e1e" stroke-width="1" fill="none"></path></g><g transform="translate(620.2857142857138 493.92857142857133) rotate(0 -0.025702890359752928 20.859069489253955)"><path d="M6.26 21.68 C5.9 29.47, 2.82 33.84, 2.47 43.44 M8.32 22.71 C5.79 29.68, 5.11 33.96, 1.17 43.46" stroke="#1e1e1e" stroke-width="1" fill="none"></path></g></g><mask></mask><g stroke-linecap="round"><g transform="translate(688.882845747501 491.64093051074605) rotate(0 0.024084414410936006 20.51889838089633)"><path d="M-0.82 0.28 C-1.16 7.03, -1.21 33.58, -1.05 40.57 M0.95 -0.62 C0.89 6.26, 1.36 34.83, 1.11 41.66" stroke="#1e1e1e" stroke-width="1" fill="none"></path></g><g transform="translate(688.882845747501 491.64093051074605) rotate(0 0.024084414410936006 20.51889838089633)"><path d="M-5.39 20.4 C-4.63 29.86, 0.82 36.25, 0.67 42.57 M-6.06 21.16 C-4.17 28.99, -1.37 34.36, 0.94 41.15" stroke="#1e1e1e" stroke-width="1" fill="none"></path></g><g transform="translate(688.882845747501 491.64093051074605) rotate(0 0.024084414410936006 20.51889838089633)"><path d="M8.78 20.48 C4.14 29.82, 4.19 36.18, 0.67 42.57 M8.11 21.24 C5.55 29.18, 3.9 34.52, 0.94 41.15" stroke="#1e1e1e" stroke-width="1" fill="none"></path></g></g><mask></mask><g transform="translate(594.5085885184144 544.2857142857142) rotate(0 22.91998291015625 12.5)"><text x="22.91998291015625" y="0" font-family="Virgil, Segoe UI Emoji" font-size="20px" fill="#e03131" text-anchor="middle" style="white-space: pre;" direction="ltr" dominant-baseline="text-before-edge">0.25</text></g><g transform="translate(670.2000122070276 541.4285714285713) rotate(0 15.79998779296875 12.5)"><text x="15.79998779296875" y="0" font-family="Virgil, Segoe UI Emoji" font-size="20px" fill="#e03131" text-anchor="middle" style="white-space: pre;" direction="ltr" dominant-baseline="text-before-edge">0.5</text></g></svg>